<?xml version="1.0" encoding="utf-8"?>
<!-- Generator: Adobe Illustrator 21.0.0, SVG Export Plug-In . SVG Version: 6.00 Build 0)  -->
<svg version="1.1" id="Layer_1" xmlns="http://www.w3.org/2000/svg" xmlns:xlink="http://www.w3.org/1999/xlink" x="0px" y="0px"
	 viewBox="0 0 243.9 243.9" style="enable-background:new 0 0 243.9 243.9;" xml:space="preserve">
<style type="text/css">
	.st0{clip-path:url(#SVGID_2_);}
	.st1{fill:#0071D4;}
	.st2{fill:#00AF8D;}
	.st3{fill:#00C0FF;}
	.st4{fill:#36C640;}
	.st5{fill:#CA4696;}
	.st6{fill:#FF3E73;}
	.st7{fill:#826FCD;}
	.st8{fill:#FFBE00;}
</style>
<g>
	<defs>
		<circle id="SVGID_1_" cx="122" cy="122" r="115.8"/>
	</defs>
	<clipPath id="SVGID_2_">
		<use xlink:href="#SVGID_1_"  style="overflow:visible;"/>
	</clipPath>
	<g class="st0">
		<g>
			<path class="st1" d="M235.8,122L8.1,168.1c-25.5,5.2-50.4-11.3-55.6-36.8c-5.2-25.5,11.3-50.4,36.8-55.6c6.3-1.3,12.8-1.2,18.7,0
				L235.8,122z"/>
		</g>
		<g>
			<path class="st2" d="M122,8.1l46.2,227.7c5.2,25.5-11.3,50.4-36.8,55.6c-25.5,5.2-50.4-11.3-55.6-36.8c-1.3-6.3-1.2-12.8,0-18.7
				L122,8.1z"/>
		</g>
		<g>
			<path class="st3" d="M202.5,41.5L74.1,235.1c-14.4,21.7-43.6,27.6-65.3,13.2C-12.9,234-18.8,204.7-4.4,183
				c3.6-5.4,8.2-9.9,13.2-13.2L202.5,41.5z"/>
		</g>
		<g>
			<path class="st4" d="M41.5,41.5l193.7,128.3c21.7,14.4,27.6,43.6,13.2,65.3c-14.4,21.7-43.6,27.6-65.3,13.2
				c-5.4-3.6-9.9-8.2-13.2-13.2L41.5,41.5z"/>
		</g>
		<g>
			<path class="st5" d="M122,235.8L75.8,8.1c-5.2-25.5,11.3-50.4,36.8-55.6c25.5-5.2,50.4,11.3,55.6,36.8c1.3,6.3,1.2,12.8,0,18.7
				L122,235.8z"/>
		</g>
		<g>
			<path class="st6" d="M41.5,202.5L169.8,8.8c14.4-21.7,43.6-27.6,65.3-13.2s27.6,43.6,13.2,65.3c-3.6,5.4-8.2,9.9-13.2,13.2
				L41.5,202.5z"/>
		</g>
		<g>
			<path class="st7" d="M202.5,202.5L8.8,74.1C-12.9,59.7-18.8,30.5-4.4,8.8C9.9-12.9,39.2-18.8,60.9-4.4c5.4,3.6,9.9,8.2,13.2,13.2
				L202.5,202.5z"/>
		</g>
		<g>
			<path class="st8" d="M235.8,168.1L8.1,122l227.7-46.2c25.5-5.2,50.4,11.3,55.6,36.8S280,163,254.5,168.1
				C248.2,169.4,241.7,169.3,235.8,168.1z"/>
		</g>
	</g>
</g>
</svg>
